<?xml version="1.0" encoding="iso-8859-1"?>
<!-- Generator: Adobe Illustrator 19.0.0, SVG Export Plug-In . SVG Version: 6.00 Build 0)  -->
<svg version="1.1" id="Layer_1" xmlns="http://www.w3.org/2000/svg" xmlns:xlink="http://www.w3.org/1999/xlink" x="0px" y="0px"
	 viewBox="0 0 512 512" style="enable-background:new 0 0 512 512;" xml:space="preserve">
<g>
	<g>
		<path d="M493.887,214.29h-70.423v-0.001l-56.541-107.753c-3.129-5.963-9.307-9.697-16.04-9.697H85.162
			c-8.57,0-15.966,6.005-17.727,14.393L45.805,214.29H18.113C8.11,214.29,0,222.4,0,232.403c0,16.993,0,100.389,0,117.446
			c0,10.003,8.11,18.113,18.113,18.113h58.723H88.32c18.145,62.898,107.658,62.964,125.823,0h64.413
			c18.148,62.906,107.653,62.952,125.81,0h89.521c10.003,0,18.113-8.11,18.113-18.113c0-16.993,0-100.389,0-117.446
			C512,222.4,503.89,214.29,493.887,214.29z M58.723,331.735H36.226v-22.497h22.497V331.735z M151.231,379.096
			c-16.13,0-29.255-13.124-29.255-29.254c0-37.756,56.477-38.963,58.466-1.57c0.022,0.519,0.037,1.042,0.037,1.576
			c0,0.025,0.004,0.049,0.004,0.075C180.44,366.016,167.335,379.096,151.231,379.096z M218.399,214.288H82.821l17.048-81.223h118.53
			V214.288z M267.672,309.235h-23.345c-10.003,0-18.113-8.11-18.113-18.113c0-10.003,8.11-18.113,18.113-18.113h23.345
			c10.003,0,18.113,8.11,18.113,18.113C285.785,301.125,277.675,309.235,267.672,309.235z M341.467,379.096
			c-16.13,0-29.255-13.124-29.255-29.254c0-37.445,56.508-39.172,58.456-1.529c0.021,0.506,0.036,1.014,0.036,1.535
			c0,0.016,0.002,0.03,0.002,0.046C370.68,366,357.574,379.096,341.467,379.096z M254.626,214.289v-81.223h85.308l42.619,81.223
			H254.626z M475.774,273.012h-22.497v-22.497h22.497V273.012z"/>
	</g>
</g>
<g>
</g>
<g>
</g>
<g>
</g>
<g>
</g>
<g>
</g>
<g>
</g>
<g>
</g>
<g>
</g>
<g>
</g>
<g>
</g>
<g>
</g>
<g>
</g>
<g>
</g>
<g>
</g>
<g>
</g>
</svg>
