<svg version="1.1" xmlns="http://www.w3.org/2000/svg" xmlns:xlink="http://www.w3.org/1999/xlink" style="" xml:space="preserve" width="285" height="285"><rect id="backgroundrect" width="100%" height="100%" x="0" y="0" fill="none" stroke="none"/>
















<g class="currentLayer" style=""><title>Layer 1</title><g id="svg_1" class="selected" fill="#e5e5e5" fill-opacity="1" opacity="1" stroke="none">
	<g id="svg_2" fill="#e5e5e5" fill-opacity="1" opacity="1" stroke="none" stroke-opacity="1">
		<path d="M142.5,0C63.934,0,0,63.934,0,142.5S63.934,285,142.5,285S285,221.066,285,142.5S221.066,0,142.5,0z M142.5,271.424    c-71.083,0-128.924-57.841-128.924-128.924S71.417,13.576,142.5,13.576S271.424,71.417,271.424,142.5    S213.583,271.424,142.5,271.424z" id="svg_3" fill="#e5e5e5" fill-opacity="1" opacity="1" stroke="none" stroke-opacity="1"/>
		<path d="M153.138,62.919H98.637c-12.586,0-20.831,4.991-20.831,20.843v120.507c0,10.632,6.928,17.807,17.788,17.807    c10.854,0,17.807-7.175,17.807-17.807v-42.336h39.515c34.524,0,54.279-21.065,54.279-49.504    C207.194,77.683,183.11,62.919,153.138,62.919z M146.632,134.583H113.4V90.269h29.545c17.584,0,28.661,6.525,28.661,22.16    C171.606,125.881,160.956,134.583,146.632,134.583z" id="svg_4" fill="#e5e5e5" fill-opacity="1" opacity="1" stroke="none" stroke-opacity="1"/>
	</g>
</g><g id="svg_5">
</g><g id="svg_6">
</g><g id="svg_7">
</g><g id="svg_8">
</g><g id="svg_9">
</g><g id="svg_10">
</g><g id="svg_11">
</g><g id="svg_12">
</g><g id="svg_13">
</g><g id="svg_14">
</g><g id="svg_15">
</g><g id="svg_16">
</g><g id="svg_17">
</g><g id="svg_18">
</g><g id="svg_19">
</g></g></svg>